<mxfile host="Electron" modified="2025-05-10T16:23:04.709Z" agent="Mozilla/5.0 (Windows NT 10.0; Win64; x64) AppleWebKit/537.36 (KHTML, like Gecko) draw.io/24.6.4 Chrome/124.0.6367.207 Electron/30.0.6 Safari/537.36" etag="8BIiWbj2Hn1erRk4-asj" version="24.6.4" type="device">
  <diagram id="ec7dsXRxZqBlURVk468d" name="Страница — 2">
    <mxGraphModel dx="1345" dy="989" grid="1" gridSize="10" guides="1" tooltips="1" connect="1" arrows="1" fold="1" page="1" pageScale="1" pageWidth="1169" pageHeight="827" math="0" shadow="0">
      <root>
        <mxCell id="0" />
        <mxCell id="1" parent="0" />
        <mxCell id="JErs1EDn9besoakHmCbK-1" value="" style="shape=image;verticalLabelPosition=bottom;labelBackgroundColor=default;verticalAlign=top;aspect=fixed;imageAspect=0;image=https://pereborom.ru/wp-content/uploads/2018/07/Akkord-E-na-gitare-1-lad.png;" parent="1" vertex="1">
          <mxGeometry x="10" y="120" width="260" height="260" as="geometry" />
        </mxCell>
        <mxCell id="JErs1EDn9besoakHmCbK-2" value="" style="shape=image;verticalLabelPosition=bottom;labelBackgroundColor=default;verticalAlign=top;aspect=fixed;imageAspect=0;image=https://pereborom.ru/wp-content/uploads/2018/09/E-1.jpg;" parent="1" vertex="1">
          <mxGeometry x="280" y="110" width="250" height="250" as="geometry" />
        </mxCell>
        <mxCell id="MoLUOoWKBqtgpBnRlrvZ-1" value="" style="shape=image;verticalLabelPosition=bottom;labelBackgroundColor=default;verticalAlign=top;aspect=fixed;imageAspect=0;image=https://pereborom.ru/wp-content/uploads/2018/07/Akkord-E-na-gitare-4-lad.png;" vertex="1" parent="1">
          <mxGeometry x="30" y="490" width="250" height="250" as="geometry" />
        </mxCell>
        <mxCell id="MoLUOoWKBqtgpBnRlrvZ-2" value="" style="shape=image;verticalLabelPosition=bottom;labelBackgroundColor=default;verticalAlign=top;aspect=fixed;imageAspect=0;image=https://pereborom.ru/wp-content/uploads/2018/09/E-4.jpg;" vertex="1" parent="1">
          <mxGeometry x="280" y="440" width="280" height="280" as="geometry" />
        </mxCell>
        <mxCell id="MoLUOoWKBqtgpBnRlrvZ-3" value="" style="shape=image;verticalLabelPosition=bottom;labelBackgroundColor=default;verticalAlign=top;aspect=fixed;imageAspect=0;image=https://pereborom.ru/wp-content/uploads/2018/07/Akkord-Em-na-gitare-2-lad.png;" vertex="1" parent="1">
          <mxGeometry x="600" y="120" width="260" height="260" as="geometry" />
        </mxCell>
        <mxCell id="MoLUOoWKBqtgpBnRlrvZ-4" value="" style="shape=image;verticalLabelPosition=bottom;labelBackgroundColor=default;verticalAlign=top;aspect=fixed;imageAspect=0;image=https://pereborom.ru/wp-content/uploads/2018/07/Akkord-Em-na-gitare-7-lad.png;" vertex="1" parent="1">
          <mxGeometry x="585" y="485" width="260" height="260" as="geometry" />
        </mxCell>
        <mxCell id="MoLUOoWKBqtgpBnRlrvZ-5" value="" style="shape=image;verticalLabelPosition=bottom;labelBackgroundColor=default;verticalAlign=top;aspect=fixed;imageAspect=0;image=https://pereborom.ru/wp-content/uploads/2018/07/Akkord-Em-na-7-ladu.jpg;" vertex="1" parent="1">
          <mxGeometry x="840" y="440" width="275" height="275" as="geometry" />
        </mxCell>
        <mxCell id="MoLUOoWKBqtgpBnRlrvZ-7" value="" style="shape=image;verticalLabelPosition=bottom;labelBackgroundColor=default;verticalAlign=top;aspect=fixed;imageAspect=0;image=https://pereborom.ru/wp-content/uploads/2018/07/Akkord-Em-na-2-ladu.jpg;" vertex="1" parent="1">
          <mxGeometry x="845" y="115" width="240" height="240" as="geometry" />
        </mxCell>
        <mxCell id="MoLUOoWKBqtgpBnRlrvZ-8" value="&lt;b style=&quot;font-size: 30px;&quot;&gt;&lt;font style=&quot;font-size: 30px;&quot;&gt;&lt;font style=&quot;font-size: 30px;&quot; color=&quot;#ff0000&quot;&gt;E&lt;/font&gt; – F# – &lt;font style=&quot;font-size: 30px;&quot; color=&quot;#ff0000&quot;&gt;G&lt;/font&gt; – A – &lt;font style=&quot;font-size: 30px;&quot; color=&quot;#ff0000&quot;&gt;B&lt;/font&gt; – C – D – E&lt;/font&gt;&lt;/b&gt;" style="text;strokeColor=none;align=center;fillColor=none;html=1;verticalAlign=middle;whiteSpace=wrap;rounded=0;fontSize=16;" vertex="1" parent="1">
          <mxGeometry x="660" y="30" width="490" height="30" as="geometry" />
        </mxCell>
        <mxCell id="MoLUOoWKBqtgpBnRlrvZ-9" value="&lt;b&gt;&lt;font style=&quot;font-size: 25px;&quot;&gt;E0 – B1 – E1 – G1# – B1 – E2&lt;/font&gt;&lt;/b&gt;" style="text;strokeColor=none;align=center;fillColor=none;html=1;verticalAlign=middle;whiteSpace=wrap;rounded=0;fontSize=16;" vertex="1" parent="1">
          <mxGeometry x="60" y="383.5" width="415" height="30" as="geometry" />
        </mxCell>
        <mxCell id="MoLUOoWKBqtgpBnRlrvZ-12" value="&lt;div style=&quot;text-align: start; font-size: 30px;&quot;&gt;&lt;span style=&quot;background-color: initial;&quot;&gt;&lt;font color=&quot;#ff0000&quot; style=&quot;font-size: 30px;&quot;&gt;E&lt;/font&gt;&lt;font style=&quot;font-size: 30px;&quot; color=&quot;#333333&quot;&gt; - F# - &lt;/font&gt;&lt;font color=&quot;#ff0000&quot; style=&quot;font-size: 30px;&quot;&gt;G#&lt;/font&gt;&lt;font style=&quot;font-size: 30px;&quot; color=&quot;#333333&quot;&gt; - A - &lt;/font&gt;&lt;font color=&quot;#ff0000&quot; style=&quot;font-size: 30px;&quot;&gt;B&lt;/font&gt;&lt;font style=&quot;font-size: 30px;&quot; color=&quot;#333333&quot;&gt; - C# - D#&lt;/font&gt;&lt;/span&gt;&lt;/div&gt;" style="text;strokeColor=none;align=center;fillColor=none;html=1;verticalAlign=middle;whiteSpace=wrap;rounded=0;fontSize=16;fontStyle=1" vertex="1" parent="1">
          <mxGeometry x="40" y="30" width="510" height="30" as="geometry" />
        </mxCell>
        <mxCell id="MoLUOoWKBqtgpBnRlrvZ-13" value="&lt;b&gt;&lt;font style=&quot;font-size: 25px;&quot;&gt;E1 – G1# – B1 – E2 - G2#&lt;/font&gt;&lt;/b&gt;" style="text;strokeColor=none;align=center;fillColor=none;html=1;verticalAlign=middle;whiteSpace=wrap;rounded=0;fontSize=16;" vertex="1" parent="1">
          <mxGeometry x="50" y="760" width="415" height="30" as="geometry" />
        </mxCell>
        <mxCell id="MoLUOoWKBqtgpBnRlrvZ-14" value="&lt;b&gt;&lt;font style=&quot;font-size: 25px;&quot;&gt;E0 – B0 – E1 – G1 – B1 – E2&lt;/font&gt;&lt;/b&gt;" style="text;strokeColor=none;align=center;fillColor=none;html=1;verticalAlign=middle;whiteSpace=wrap;rounded=0;fontSize=16;" vertex="1" parent="1">
          <mxGeometry x="650" y="384" width="415" height="30" as="geometry" />
        </mxCell>
        <mxCell id="MoLUOoWKBqtgpBnRlrvZ-15" value="&lt;b&gt;&lt;font style=&quot;font-size: 25px;&quot;&gt;E1 – B1 – E2 – G2 - B2&lt;/font&gt;&lt;/b&gt;" style="text;strokeColor=none;align=center;fillColor=none;html=1;verticalAlign=middle;whiteSpace=wrap;rounded=0;fontSize=16;" vertex="1" parent="1">
          <mxGeometry x="640" y="760" width="415" height="30" as="geometry" />
        </mxCell>
      </root>
    </mxGraphModel>
  </diagram>
</mxfile>
